<svg width="20" height="20" viewBox="0 0 20 20" fill="none" xmlns="http://www.w3.org/2000/svg">
<path d="M18.4614 5.83325H1.53835C1.32988 5.83325 1.14957 5.91566 0.997384 6.08062C0.845115 6.24549 0.769043 6.44082 0.769043 6.66652V19.1665C0.769043 19.3921 0.845115 19.5875 0.997384 19.7524C1.14957 19.9173 1.32988 19.9999 1.53835 19.9999H18.4614C18.6698 19.9999 18.8499 19.9173 19.0023 19.7524C19.1544 19.5876 19.2305 19.3922 19.2305 19.1665V6.66652C19.2305 6.44068 19.1547 6.24553 19.0023 6.08062C18.8501 5.91566 18.6698 5.83325 18.4614 5.83325ZM12.0789 9.75247C11.9268 9.91738 11.7464 9.99983 11.5381 9.99983H8.46117C8.25295 9.99983 8.07264 9.91733 7.92033 9.75247C7.76815 9.58751 7.69199 9.39227 7.69199 9.16643C7.69199 8.94077 7.76815 8.74544 7.92033 8.58052C8.0726 8.41557 8.25291 8.33306 8.46117 8.33306H11.5384C11.7466 8.33306 11.9268 8.41557 12.0792 8.58052C12.2314 8.74539 12.3074 8.94072 12.3074 9.16643C12.3074 9.39222 12.2312 9.58751 12.0789 9.75247Z" fill="#C2CAF8"/>
<path d="M19.7718 0.247368C19.6195 0.0824104 19.4393 0 19.2309 0H0.769221C0.560918 0 0.380611 0.0824104 0.228384 0.247368C0.0761559 0.412234 0 0.607566 0 0.833271V4.16658C0 4.39224 0.0761559 4.58748 0.228426 4.75248C0.380653 4.91744 0.560918 4.99985 0.769263 4.99985H19.2307C19.439 4.99985 19.6194 4.91744 19.7718 4.75248C19.9239 4.58753 20 4.39229 20 4.16658V0.833271C20 0.607429 19.9239 0.412234 19.7718 0.247368Z" fill="#C2CAF8"/>
</svg>
