<svg width="24" height="24" viewBox="0 0 24 24" fill="none" xmlns="http://www.w3.org/2000/svg">
<circle cx="12" cy="12" r="12" fill="#FEE990"/>
<circle cx="12" cy="12" r="9" fill="white"/>
<path d="M12.0383 3.00012C7.05456 3.00012 3 7.03752 3 12.0001C3 16.9627 7.05456 21.0001 12.0383 21.0001C17.022 21.0001 21.0765 16.9627 21.0765 12.0001C21.0765 7.03752 17.022 3.00012 12.0383 3.00012ZM12.0383 19.2001C8.05239 19.2001 4.80765 15.9691 4.80765 12.0001C4.80765 8.03112 8.05239 4.80012 12.0383 4.80012C16.0241 4.80012 19.2689 8.03112 19.2689 12.0001C19.2689 15.9691 16.0241 19.2001 12.0383 19.2001ZM12.0383 7.50012C11.5393 7.50012 11.1344 7.90242 11.1344 8.40012V12.0001C11.1344 12.4978 11.5393 12.9001 12.0383 12.9001C12.5372 12.9001 12.9421 12.4978 12.9421 12.0001V8.40012C12.9421 7.90242 12.5372 7.50012 12.0383 7.50012ZM12.0383 14.7001C11.5393 14.7001 11.1344 15.1024 11.1344 15.6001C11.1344 16.0978 11.5393 16.5001 12.0383 16.5001C12.5372 16.5001 12.9421 16.0978 12.9421 15.6001C12.9421 15.1024 12.5372 14.7001 12.0383 14.7001Z" fill="#9B6F23"/>
</svg>
